:SAMPLES-PER-SECOND 30
:FULLY-SPECIFIED
:DEGREES
199
root  3.265688738 38.04777851 -6.763510817 -4.242004395 -27.29600525 8.630996704
lowerback  15.46189976 -0.3389270008 -5.582829952
upperback  6.445529938 -1.376119971 -1.321149945
thorax  -1.719400048 -0.7961230278 1.992210031
lowerneck  -0.7327659726 -1.405339956 -11.38609982
upperneck  7.19701004 -2.083470106 8.109729767
head  2.448849916 -1.112509966 4.265039921
lclavicle  0 -9.442270133e-015 7.951389973e-016
lhumerus  18.66740036 -16.80649948 81.8015976
lradius  2.080725004e-031 -2.85296819e-031 126.1039963
lwrist  -7.062250077e-031 -0 14.20699978
lhand  -1.496451383e-031 -27.76390076 20.11240005
lfingers  90 7.125020027 -90
lthumb  89.89689403 5.08795885 91.16245106
rclavicle  0 -9.442270133e-015 7.951389973e-016
rhumerus  21.40410042 10.68570042 -81.17259979
rradius  -2.421665324e-031 2.569899044e-031 133.298996
rwrist  0 -0 -11.26850033
rhand  -7.920061211e-032 -33.2840004 9.303460121
rfingers  -90 -7.125020027 -90
rthumb  -92.93752616 -24.25625642 -97.11982154
rfemur  -32.10779953 8.290180206 0.3905180097
rtibia  -0 0 78.10620117
rfoot  -0 -10.16549969 -11.0152998
rtoes  5.373923086 19.29304026 -105.8922705
lfemur  -14.08160019 10.14410019 -14.74800014
ltibia  -0 0 59.92649841
lfoot  4.599308497e-032 -16.32369995 -5.824250221
ltoes  -4.250644065 -19.5611806 -102.515957
200
root  3.349488927 37.87377725 -6.962844518 -4.332992554 -27.42300415 8.772994995
lowerback  15.24790001 -0.3452230096 -5.476789951
upperback  6.322259903 -1.35394001 -1.229740024
thorax  -1.738970041 -0.7807719707 2.022559881
lowerneck  -0.8481950164 -1.417569995 -11.29759979
upperneck  7.156630039 -2.064120054 7.753620148
head  2.451230049 -1.107489944 4.139579773
lclavicle  0 -9.442270133e-015 7.951389973e-016
lhumerus  18.19820023 -16.86560059 81.94609833
lradius  2.114487102e-031 -2.828036126e-031 126.7850037
lwrist  -7.062250077e-031 -1.765562519e-031 13.43910027
lhand  -1.496451383e-031 -27.76390076 20.11240005
lfingers  90 7.125020027 -90
lthumb  89.89689403 5.08795885 91.16245106
rclavicle  0 -9.442270133e-015 7.951389973e-016
rhumerus  21.45820045 10.88029957 -81.13690186
rradius  -2.426684231e-031 2.565160362e-031 133.4109955
rwrist  7.062250077e-031 -0 -10.91040039
rhand  -7.920061211e-032 -33.2840004 9.303460121
rfingers  -90 -7.125020027 -90
rthumb  -92.93752616 -24.25625642 -97.11982154
rfemur  -29.59799957 8.471540451 0.003452729899
rtibia  -0 0 76.89849854
rfoot  -0 -10.63309956 -10.17409992
rtoes  5.373923086 19.29304026 -105.8922705
lfemur  -14.39960003 11.35779953 -14.61419964
ltibia  -0 0 60.61449814
lfoot  4.614837502e-032 -16.96960068 -6.293399811
ltoes  -4.250644065 -19.5611806 -102.515957
201
root  3.42262223 37.68488967 -7.163066564 -4.242996216 -27.49699402 8.792007446
lowerback  14.91090012 -0.3401310146 -5.33220005
upperback  6.176310062 -1.301949978 -1.095860004
thorax  -1.718960047 -0.750714004 2.068949938
lowerneck  -0.722867012 -1.426929951 -11.33220005
upperneck  6.857860088 -2.069139957 7.620900154
head  2.342200041 -1.112709999 4.103720188
lclavicle  0 -9.442270133e-015 7.951389973e-016
lhumerus  17.72270012 -16.99640083 82.11260223
lradius  2.147705282e-031 -2.802892445e-031 127.4609985
lwrist  -1.412450015e-030 -0 12.73390007
lhand  -1.496451383e-031 -27.76390076 20.11240005
lfingers  90 7.125020027 -90
lthumb  89.89689403 5.08795885 91.16245106
rclavicle  0 -9.442270133e-015 7.951389973e-016
rhumerus  21.43009949 10.91919994 -81.00650024
rradius  -2.431560213e-031 2.560538804e-031 133.5200043
rwrist  1.412450015e-030 -0 -10.57470036
rhand  -7.920061211e-032 -33.2840004 9.303460121
rfingers  -90 -7.125020027 -90
rthumb  -92.93752616 -24.25625642 -97.11982154
rfemur  -26.76670074 8.772439957 -0.2052170038
rtibia  -0 0 74.76730347
rfoot  -0 -13.41950035 -10.25319958
rtoes  5.373923086 19.29304026 -105.8922705
lfemur  -15.04030037 12.68739986 -14.30529976
ltibia  -0 0 61.52470016
lfoot  9.26345491e-032 -17.64139938 -7.170539856
ltoes  -4.250644065 -19.5611806 -102.515957
202
root  3.48731101 37.47666727 -7.360355497 -3.95300293 -27.56399536 8.682998657
lowerback  14.45979977 -0.3562679887 -5.152729988
upperback  5.964360237 -1.266280055 -0.9168059826
thorax  -1.705680013 -0.7268189788 2.144330025
lowerneck  -0.4225389957 -1.356230021 -11.45660019
upperneck  6.45043993 -1.993710041 7.692329884
head  2.166520119 -1.07652998 4.148869991
lclavicle  0 -9.442270133e-015 7.951389973e-016
lhumerus  17.10090065 -17.18810081 82.36769867
lradius  2.174997178e-031 -2.78176766e-031 128.0209961
lwrist  -7.062250077e-031 -0 12.10849953
lhand  -1.496451383e-031 -27.76390076 20.11240005
lfingers  90 7.125020027 -90
lthumb  89.89689403 5.08795885 91.16245106
rclavicle  0 -9.442270133e-015 7.951389973e-016
rhumerus  21.26460075 10.96819973 -80.92620087
rradius  -2.442486742e-031 2.550118145e-031 133.7649994
rwrist  7.062250077e-031 -1.765562519e-031 -10.64960003
rhand  -7.920061211e-032 -33.2840004 9.303460121
rfingers  -90 -7.125020027 -90
rthumb  -92.93752616 -24.25625642 -97.11982154
rfemur  -23.84410095 9.176839828 -0.2410590053
rtibia  -0 0 71.88629913
rfoot  -0 -19.86790085 -11.82670021
rtoes  5.373923086 19.29304026 -105.8922705
lfemur  -15.99839973 14.14389992 -13.85130024
ltibia  -0 0 62.62350082
lfoot  -0 -18.01259995 -8.414319992
ltoes  -4.250644065 -19.5611806 -102.515957
203
root  3.540866581 37.25511145 -7.560844121 -3.432998657 -27.71499634 8.25
lowerback  13.97410011 -0.3575460017 -4.753799915
upperback  5.740849972 -1.181210041 -0.690056026
thorax  -1.693300009 -0.6757889986 2.138220072
lowerneck  -0.09610039741 -1.261010051 -11.48700047
upperneck  5.970129967 -1.893479943 7.860599995
head  1.962010026 -1.023290038 4.209000111
lclavicle  0 -9.442270133e-015 7.951389973e-016
lhumerus  16.48889923 -17.51939964 82.59259796
lradius  2.20025034e-031 -2.761836795e-031 128.5429993
lwrist  -7.062250077e-031 -1.765562519e-031 11.33310032
lhand  -1.496451383e-031 -27.76390076 20.11240005
lfingers  90 7.125020027 -90
lthumb  89.89689403 5.08795885 91.16245106
rclavicle  0 -9.442270133e-015 7.951389973e-016
rhumerus  21.02560043 10.93010044 -80.87319946
rradius  -2.45301418e-031 2.539993202e-031 134.0019989
rwrist  7.062250077e-031 -0 -10.83320045
rhand  -7.920061211e-032 -33.2840004 9.303460121
rfingers  -90 -7.125020027 -90
rthumb  -92.93752616 -24.25625642 -97.11982154
rfemur  -21.13489914 9.861940384 0.111394003
rtibia  -0 0 68.57679749
rfoot  -0 -25.04730034 -12.10280037
rtoes  5.373923086 19.29304026 -105.8922705
lfemur  -17.22439957 15.7670002 -12.99590015
ltibia  -0 0 63.99829865
lfoot  -0 -17.80089951 -9.874679565
ltoes  -4.250644065 -19.5611806 -102.515957
204
root  3.578155623 37.11066659 -7.753710859 -2.830993652 -27.90400696 7.699005127
lowerback  13.61880016 -0.3332929909 -4.385240078
upperback  5.483359814 -1.076760054 -0.4215269983
thorax  -1.784250021 -0.6135039926 2.192859888
lowerneck  -0.04677579924 -1.246449947 -11.37639999
upperneck  5.773759842 -1.871930003 7.820980072
head  1.892320037 -1.00940001 4.178919792
lclavicle  0 -9.442270133e-015 7.951389973e-016
lhumerus  15.80249977 -17.94470024 82.81490326
lradius  2.233063997e-031 -2.73537369e-031 129.227005
lwrist  -1.412450015e-030 1.765562519e-031 10.39960003
lhand  -1.496451383e-031 -27.76390076 20.11240005
lfingers  90 7.125020027 -90
lthumb  89.89689403 5.08795885 91.16245106
rclavicle  0 -9.442270133e-015 7.951389973e-016
rhumerus  20.75889969 10.91219997 -80.83280182
rradius  -2.454121957e-031 2.538922893e-031 134.0269928
rwrist  0 -1.765562519e-031 -10.70119953
rhand  -7.920061211e-032 -33.2840004 9.303460121
rfingers  -90 -7.125020027 -90
rthumb  -92.93752616 -24.25625642 -97.11982154
rfemur  -19.2866993 11.0376997 0.6574980021
rtibia  -0 0 65.14969635
rfoot  -0 -29.24939919 -11.31589985
rtoes  5.373923086 19.29304026 -105.8922705
lfemur  -18.53280067 17.36750031 -11.9715004
ltibia  -0 0 65.46060181
lfoot  -0 -16.97459984 -11.39299965
ltoes  -4.250644065 -19.5611806 -102.515957
205
root  3.635355431 36.94244445 -7.968155418 -2.199005127 -28.07200623 7.115997314
lowerback  13.44709969 -0.3284209967 -4.050290108
upperback  5.166399956 -1.012879968 -0.1264739931
thorax  -2.030730009 -0.5683069825 2.303719997
lowerneck  -0.1596679986 -1.301800013 -11.06719971
upperneck  5.739910126 -1.922819972 7.52575016
head  1.900879979 -1.031810045 4.035260201
lclavicle  0 -9.442270133e-015 7.951389973e-016
lhumerus  14.88969994 -18.3859005 83.16230011
lradius  2.273490696e-031 -2.701866779e-031 130.0789948
lwrist  -7.062250077e-031 -1.765562519e-031 9.723899841
lhand  -1.496451383e-031 -27.76390076 20.11240005
lfingers  90 7.125020027 -90
lthumb  89.89689403 5.08795885 91.16245106
rclavicle  0 -9.442270133e-015 7.951389973e-016
rhumerus  20.4204998 10.95549965 -80.82990265
rradius  -2.456336786e-031 2.53678017e-031 134.0769958
rwrist  7.062250077e-031 -1.765562519e-031 -10.5241003
rhand  -7.920061211e-032 -33.2840004 9.303460121
rfingers  -90 -7.125020027 -90
rthumb  -92.93752616 -24.25625642 -97.11982154
rfemur  -18.03549957 12.36859989 1.230419993
rtibia  -0 0 62.25310135
rfoot  -0 -32.14160156 -10.55000019
rtoes  5.373923086 19.29304026 -105.8922705
lfemur  -20.14760017 18.74699974 -10.92160034
ltibia  -0 0 67.17199707
lfoot  -0 -15.42150021 -13.11979961
ltoes  -4.250644065 -19.5611806 -102.515957
